<svg width="240" height="324" viewBox="0 0 240 324" fill="none" xmlns="http://www.w3.org/2000/svg">
<path fill-rule="evenodd" clip-rule="evenodd" d="M198.116 286.313C202.199 286.116 200.557 278.971 200.264 276.347C197.031 266.764 197.791 256.308 196.52 246.263C195.727 236.886 194.71 227.538 193.854 218.168C192.172 199.148 180.099 160.427 166.321 154.2C164.586 146.582 157.417 139.47 148.348 139.47C142.162 132.145 134.716 126.99 125.166 128.031C121.22 128.21 117.392 132.398 113.611 133.206C111.493 133.498 92.7033 132.747 88.9393 134.983C86.3175 136.33 83.9507 138.818 84.7216 141.987C85.9516 145.825 82.1291 141.672 74.1552 145.769C57.8954 155.538 67.6116 168.607 68.0422 169.012C57.8954 183.135 49.0267 194.593 44.9232 211.855C42.2638 224.671 42.5631 237.902 40.3349 250.784C39.5481 255.25 38.3412 259.564 37.0351 263.902C35.6196 269.578 34.9313 283.727 34.1511 283.853C32.7299 284.206 34.9725 287.126 36.4784 287.128C78.23 294.056 120.639 287.415 162.615 286.33C174.445 285.918 186.287 285.824 198.116 286.313Z" fill="white"/>
<path fill-rule="evenodd" clip-rule="evenodd" d="M134.835 170.259C134.855 170.067 135.112 170.068 135.132 170.259L135.427 173.105C135.786 176.582 136.131 180.052 136.381 183.545C136.693 187.901 136.902 192.255 137.003 196.621C137.353 211.825 137.423 227.037 137.453 242.244C139.508 242.102 141.564 241.965 143.622 241.832C145.017 241.742 146.413 241.655 147.809 241.57L151.368 241.354L152.833 241.264C153.824 241.203 154.949 240.954 155.641 241.831C155.918 242.182 156.057 242.639 155.799 243.056C155.203 244.018 154.287 243.984 153.252 244.026C152.275 244.065 151.298 244.104 150.321 244.142C148.228 244.223 146.135 244.3 144.041 244.359C141.843 244.42 139.646 244.47 137.45 244.508C137.427 250.928 137.162 257.34 136.875 263.753L136.745 266.639C136.393 274.443 136.016 282.254 135.479 290.048C135.435 290.686 134.532 290.685 134.488 290.048C133.884 281.271 133.485 272.475 133.089 263.686C132.803 257.314 132.636 250.94 132.556 244.565C132.266 244.566 131.975 244.571 131.685 244.572C123.44 244.607 115.197 244.643 106.952 244.566C106.966 244.582 106.979 244.599 106.988 244.62C107.585 246.029 107.642 247.827 107.627 249.34C107.61 251.074 107.377 252.787 106.978 254.474C105.547 260.516 101.857 265.928 97.6545 270.402L97.5173 270.547C96.526 271.595 95.3888 272.648 94.7801 273.983C94.1584 275.345 93.9426 276.939 93.6358 278.404L93.6 278.572L92.4004 284.115C92.0193 285.876 91.9111 288.443 90.518 289.713C89.2183 290.899 87.4964 290.28 86.8848 288.754C86.4071 287.563 86.8829 286.255 87.1658 285.064L89.3822 275.744C89.7464 274.224 90.1444 272.694 90.9304 271.329C91.7355 269.93 92.9159 268.916 94.1203 267.879C96.4009 265.915 98.4946 263.666 100.265 261.231C102.035 258.797 103.548 256.114 104.609 253.293C105.14 251.881 105.575 250.414 105.875 248.935C106.161 247.531 106.158 246.077 106.463 244.689C106.484 244.593 106.565 244.527 106.658 244.498C106.636 244.436 106.67 244.352 106.756 244.347L113.499 243.913C119.493 243.527 125.487 243.13 131.476 242.677L132.534 242.6C132.452 234.094 132.522 225.587 132.675 217.078C132.816 209.275 132.819 201.47 133.051 193.668C133.166 189.796 133.415 185.933 133.692 182.069C133.975 178.117 134.428 174.199 134.835 170.259ZM71.5199 215.501C71.4481 215.068 71.993 214.8 72.2442 215.196C75.1155 219.724 76.4999 224.641 77.0835 229.94C77.599 234.616 77.4471 239.359 77.1904 244.048C76.9166 249.048 76.5971 254.048 76.2741 259.045L75.7778 266.71L74.5324 285.923C74.4433 287.298 74.1314 288.547 72.9485 289.186C72.7987 289.311 72.6426 289.424 72.4607 289.521C71.8216 289.863 70.974 289.69 70.6045 289.034L70.7527 289.131C70.8817 289.213 70.7368 289.099 70.3178 288.791L69.9623 288.331C69.7039 287.943 69.5389 287.561 69.4725 287.099C69.3694 286.381 69.503 285.594 69.5499 284.873L70.3662 272.274C71.0011 262.48 71.7424 252.688 72.3012 242.888C72.5615 238.321 72.7438 233.749 72.6204 229.174C72.4975 224.624 72.2657 219.997 71.5199 215.501ZM96.3595 131.161L96.5188 131.134C102.222 130.186 108.424 130.364 113.636 133.114C113.679 133.137 113.659 133.208 113.611 133.206L111.933 133.139C106.622 132.931 101.327 132.808 96.1054 134.056L95.5708 134.185C93.6901 134.644 91.7262 135.206 90.2156 136.448C88.7718 137.636 88.0529 139.468 87.3616 141.155L87.2692 141.378C86.5678 143.044 85.6801 144.624 84.1428 145.665C82.1516 147.014 79.7568 146.849 77.4737 147.032C73.4537 147.356 70.167 150.27 68.5318 153.837C67.5416 155.996 67.1192 158.417 67.0356 160.779C66.9927 161.981 66.9866 163.231 67.1467 164.425C67.1978 164.807 67.6698 166.198 67.9104 166.165C68.4451 166.091 68.934 166.37 69.1007 166.797C70.4216 165.521 71.7804 164.281 73.183 163.086C76.6793 160.107 80.4452 157.408 84.4111 155.088C87.4379 153.317 90.6306 151.563 93.9367 150.237C93.6747 150.231 93.4164 150.283 93.1664 150.413C93.057 150.47 92.9482 150.333 93.0346 150.242C94.0759 149.146 95.3232 148.99 96.5807 149.282C96.849 149.197 97.1175 149.114 97.3871 149.036C97.5213 148.997 97.588 149.182 97.4786 149.253L97.1697 149.451C98.5415 149.91 99.8883 150.814 100.955 151.527C104.018 153.575 106.714 156.078 109.446 158.535L109.943 158.98C112.349 161.129 114.816 163.217 117.549 164.941C118.98 165.843 120.482 166.678 122.059 167.298C123.411 167.831 125.612 168.167 126.245 169.596C126.808 170.28 126.573 171.153 125.914 171.613C124.802 172.837 122.578 172.046 121.253 171.537C119.656 170.922 118.109 170.183 116.634 169.317C113.769 167.635 111.128 165.543 108.668 163.318C106.098 160.994 103.674 158.525 101.175 156.128C100.092 155.089 99.0339 154.027 97.9494 152.99L97.4047 152.473C96.8511 151.954 96.0625 151.145 95.2193 150.655C93.6308 151.603 92.0178 152.511 90.4436 153.484C88.2462 154.841 86.1135 156.296 84.0137 157.799C79.9713 160.693 76.1406 163.934 72.5843 167.408C66.062 173.778 60.5053 181.053 55.651 188.756L55.2824 189.343C52.5239 193.752 49.9153 198.303 48.0656 203.174C46.0305 208.535 45.0407 214.173 44.503 219.863C43.9694 225.513 43.7894 231.191 43.193 236.836C42.5813 242.625 41.3763 248.286 40.0056 253.937L39.6787 255.277C38.4384 260.337 37.1583 265.398 36.5207 270.578C36.1804 273.345 35.9756 276.15 36.0219 278.939C36.0684 281.745 36.5091 284.488 36.8647 287.265C37.0009 288.328 35.9547 289.216 35.0186 289.357C33.942 289.518 33.0171 288.831 32.6824 287.831C31.6392 284.712 31.4497 281.264 31.4824 277.991C31.5154 274.667 31.9394 271.365 32.536 268.099C33.7094 261.674 35.5201 255.383 37.0349 249.035C38.3699 243.44 39.2659 237.836 39.7489 232.104C40.2502 226.158 40.5504 220.191 41.465 214.287C42.3678 208.459 44.0663 202.892 46.628 197.578C48.9604 192.739 51.8678 188.185 54.916 183.77C58.6176 178.41 62.683 173.309 67.2274 168.661C66.8192 168.644 66.4001 168.512 66.0152 168.272C64.8375 167.537 64.2891 166.099 64.1205 164.787C63.7259 161.717 63.8211 158.511 64.6104 155.509C65.8837 150.667 69.1884 146.364 73.9778 144.619C75.2106 144.169 76.5211 144.005 77.8275 143.973C79.0673 143.942 80.4213 144.104 81.6175 143.711C83.5215 143.085 84.3376 140.841 85.0525 139.141L85.0854 139.063C86.0021 136.896 87.1024 135.038 89.0879 133.685C91.2062 132.242 93.8603 131.585 96.3595 131.161ZM150.549 139.731C152.263 139.136 154.406 139.676 156.082 140.195C157.949 140.774 159.674 141.841 161.153 143.108C162.714 144.443 164.004 146.093 164.915 147.935L165.002 148.113C165.835 149.822 166.782 152.168 166.363 154.046C166.351 154.099 166.337 154.151 166.321 154.2C169.722 155.875 172.862 157.972 175.597 160.631C178.781 163.726 181.477 167.248 183.759 171.053C192.821 186.166 194.416 204.317 195.486 221.552L195.753 225.922C196.334 235.359 197.014 244.773 198.781 254.08L198.91 254.751C200.798 264.495 203.501 274.313 203.228 284.309C203.145 287.304 198.721 287.283 198.593 284.309C198.11 273.113 195.498 262.303 193.73 251.283C190.618 231.893 192.177 211.904 187.768 192.708C186.038 185.175 183.357 177.868 179.53 171.144C177.639 167.822 175.476 164.613 172.942 161.747C170.762 159.281 168.496 156.908 165.948 154.835C165.134 155.651 163.508 155.235 163.083 154.046C162.791 153.229 162.876 152.273 162.688 151.417C162.514 150.622 162.275 149.835 161.955 149.087C161.318 147.596 160.384 146.164 159.305 144.957C158.139 143.652 156.8 142.569 155.301 141.674C153.791 140.773 152.141 140.504 150.549 139.845C150.495 139.823 150.49 139.751 150.549 139.731ZM157.208 243.355C157.21 243.276 157.303 243.239 157.36 243.292C157.961 243.845 158.324 244.638 158.766 245.319C159.276 246.103 159.812 246.872 160.373 247.62C161.498 249.12 162.751 250.534 164.013 251.919C165.188 253.207 166.439 254.44 167.738 255.603C169.144 256.863 170.72 257.988 171.998 259.383C174.665 262.294 175.096 266.291 175.658 270.043L175.72 270.449C176.063 272.675 176.371 274.908 176.648 277.144C176.783 278.232 176.917 279.32 177.027 280.411L177.06 280.756C177.158 281.823 177.185 282.906 176.572 283.839C175.916 284.837 174.425 285.187 173.538 284.23C172.014 282.586 172.3 279.667 172.102 277.552C171.938 275.804 171.752 274.057 171.544 272.313L171.439 271.442C171.194 269.458 170.995 267.435 170.541 265.485C170.141 263.769 169.379 262.473 168.129 261.23C166.869 259.977 165.56 258.808 164.398 257.459C163.165 256.028 162.052 254.494 161.05 252.892C160.193 251.523 159.506 250.032 158.876 248.544L158.772 248.296C158.163 246.844 157.16 244.954 157.208 243.355ZM179.203 180.997C179.216 180.795 179.516 180.791 179.52 180.997C179.558 182.739 179.594 184.48 179.63 186.222C179.921 200.256 179.742 214.323 181.149 228.309C181.813 234.903 183.035 241.401 184.45 247.871C185.174 251.182 185.933 254.485 186.654 257.796C187.358 261.023 188.112 264.266 188.669 267.523C189.217 270.724 189.708 273.95 189.929 277.192L189.956 277.615C190.051 279.186 190.503 281.496 189.639 282.888C188.702 284.396 186.909 284.423 185.905 282.984C184.962 281.632 185.197 279.228 185.03 277.615C184.861 275.973 184.682 274.328 184.479 272.689C184.082 269.492 183.56 266.302 183.016 263.127C181.885 256.514 180.243 249.985 179.032 243.383C177.79 236.618 176.907 229.804 176.87 222.916C176.833 215.97 177.568 209.037 177.939 202.106C178.316 195.066 178.744 188.032 179.203 180.997ZM112.933 137.346C113.309 136.077 114.639 135.284 115.935 135.64C117.124 135.967 118.105 137.41 117.64 138.645C117.133 139.992 116.247 141.14 115.5 142.365C114.81 143.496 113.804 144.387 113.101 145.498L113.875 146.334C114.263 146.75 114.651 147.165 115.044 147.572L116.395 148.972C117.448 150.059 118.506 151.142 119.595 152.192C122.796 155.281 126.048 158.268 129.633 160.913C130.449 161.515 131.271 162.114 132.117 162.674L132.432 162.883C133.012 163.263 133.659 163.637 134.36 163.572C136.063 163.416 137.601 161.607 138.771 160.481L138.833 160.423C141.732 157.663 144.417 154.645 146.765 151.4C147.286 150.679 147.791 149.946 148.282 149.204C147.147 147.878 147.418 145.289 147.356 143.681C147.312 142.55 147.308 141.419 147.302 140.287L147.299 140.059C147.285 139.326 147.252 138.624 147.727 138.021C147.755 137.986 147.812 137.987 147.848 138.005C148.498 138.347 148.699 138.918 148.977 139.559L149.006 139.625C149.344 140.394 149.667 141.171 149.995 141.944C150.338 142.754 150.652 143.576 150.971 144.395C151.119 144.777 151.261 145.159 151.399 145.544C151.483 145.79 151.57 146.035 151.66 146.279L151.681 146.298C151.799 146.398 151.9 146.504 151.986 146.614C152.349 146.795 152.638 147.126 152.773 147.613C153.068 148.672 152.458 149.536 151.914 150.376C149.704 153.792 147.185 157.046 144.385 159.999C142.994 161.465 141.531 162.866 140.008 164.195L139.741 164.426C138.373 165.602 136.888 166.716 135.06 166.992C132.922 167.313 131.181 166.249 129.544 165.024L129.381 164.901C127.829 163.726 126.308 162.509 124.835 161.236C121.831 158.642 118.973 155.856 116.436 152.8C113.969 149.827 111.531 146.503 110.01 142.926C109.917 142.708 110.161 142.48 110.352 142.662C111.095 143.369 111.809 144.115 112.516 144.87C112.535 143.758 112.33 142.637 112.444 141.518C112.584 140.158 112.543 138.656 112.933 137.346Z" fill="black"/>
<path fill-rule="evenodd" clip-rule="evenodd" d="M162.571 89.561C162.069 83.0633 162.847 76.2527 160.342 70.0766C155.976 59.8293 143.732 56.4126 134.239 52.5113C130.436 51.3872 117.64 51.2301 113.188 49.7423C103.11 46.3751 100.702 42.3632 92.6947 48.7744C91.343 49.8697 90.4973 51.06 89.8804 52.6863L89.9058 52.6933C89.7296 53.3713 89.9185 54.0478 90.3154 54.5646C86.8435 58.1149 85.3906 63.4375 87.172 68.1635C92.9854 80.4618 92.712 87.1115 90.8389 100.333C88.3929 112.676 93.9824 117.184 103.239 123.9C102.862 124.631 102.784 125.603 103.276 126.248C113.98 141.296 134.163 148.48 151.456 140.843C158.475 137.717 161.609 130.239 163.397 123.491C165.481 115.936 166.121 107.974 164.425 100.278C163.741 96.718 162.85 93.1842 162.571 89.561Z" fill="white"/>
<path fill-rule="evenodd" clip-rule="evenodd" d="M100.826 17.571C102.126 17.3759 103.107 18.1823 103.574 19.319L103.598 19.3802C103.748 19.767 103.915 20.1432 104.095 20.513C107.346 18.9174 111.985 19.3274 114.043 22.5589C115.511 24.8669 114.616 27.606 114.062 30.0534L113.699 31.666C114.401 32.1132 114.931 32.9139 114.906 33.7431L114.903 33.807L114.755 36.0557C115.224 35.5802 115.653 35.0624 116.035 34.5108C116.3 34.0268 116.585 33.5512 116.891 33.0905C118.693 30.3789 122.739 32.7354 121.252 35.6394C120.966 36.1995 120.645 36.73 120.301 37.2414C119.912 37.9959 119.593 38.7716 119.348 39.5684C120.052 39.8748 120.592 40.5554 120.65 41.5826C120.783 43.9814 119.523 45.9829 117.521 47.2404C116.931 47.6103 116.323 47.6821 115.771 47.5447C115.674 47.6758 115.577 47.8068 115.484 47.94C116.283 48.5888 117.003 49.3285 117.622 50.1486C119.485 49.8696 121.359 49.7386 123.233 49.7343C125.523 48.6121 128.266 48.6353 130.727 49.0559C132.312 49.3264 133.833 49.8527 135.392 50.231C137.035 50.6283 138.704 50.6431 140.367 50.9137C142.463 51.2539 144.301 52.2219 145.457 53.7669C146.726 53.8049 148.062 54.3249 149.169 55.0308C151.746 56.6751 154.309 58.3426 156.88 59.9975C157.867 60.6328 158.236 61.6471 158.054 62.7784L158.042 62.8507L157.955 63.3199L158.159 63.6087C158.945 64.7203 159.802 65.8846 160.311 67.1116C161.253 68.4705 162.104 69.895 162.859 71.3639C163.875 73.3379 164.714 75.4303 165.282 77.5776C165.423 78.1208 165.565 78.6682 165.658 79.2219C165.791 80.0039 165.586 80.6105 165.474 81.3608C165.335 82.3119 165.284 83.2756 165.136 84.2288C165.037 84.8608 164.5 85.1714 163.938 85.1883C164.15 86.7967 164.302 88.4157 164.447 90.0219C164.652 92.3172 164.792 94.6188 164.912 96.9204C165.533 97.8229 166.803 98.5372 167.72 98.7845C168.99 99.1248 170.321 98.7549 171.521 98.3217C172.275 98.049 172.894 98.998 172.526 99.632C171.371 101.623 168.899 101.614 167.027 100.733C166.235 100.361 165.54 99.8222 165.024 99.1206C165.056 99.7884 165.09 100.456 165.123 101.126L165.155 101.733C165.536 108.82 166.357 116.151 165.026 123.168C162.721 135.323 152.667 144.578 140.384 145.296C133.939 145.674 128.571 143.769 125.902 142.707C123.233 141.644 124.271 139.478 126.124 140.097C129.315 141.164 135.179 142.753 140.426 142.067C152.794 140.45 163.281 134.266 162.204 107.632C162.051 103.855 161.581 100.076 161.479 96.299C161.382 92.6067 161.418 88.9123 161.255 85.2222L161.201 83.9631C161.137 82.4919 161.069 81.0139 160.959 79.5411C160.826 78.9704 160.716 78.3913 160.554 77.8312C160.112 76.3074 159.535 74.8258 158.819 73.4119C158.661 73.5324 158.483 73.619 158.291 73.6528C156.831 73.9149 155.462 73.841 154.095 73.2323C153.457 72.9512 152.895 72.5771 152.371 72.1142C152.122 71.8965 151.955 71.6852 151.824 71.4654C151.163 71.4759 150.502 71.2773 150.088 70.8017C149.615 70.2597 149.537 69.6999 149.722 69.1816L149.741 69.13L149.695 69.113C149.137 70.5566 148.026 71.8268 146.807 72.6849C144.88 74.046 142.469 74.4391 140.158 74.475C137.606 74.513 134.914 74.1199 132.396 73.7184C131.731 73.6127 131.069 73.4922 130.421 73.3295C130.395 73.3548 130.37 73.3844 130.342 73.4098C128.181 75.4789 125.141 76.0115 122.399 74.8301C120.814 74.1474 119.485 73.0484 118.311 71.7887C118.294 72.4482 118.26 73.1076 118.203 73.7606L118.179 74.02C118.062 75.2363 117.837 76.5265 116.919 77.4043C115.433 78.8267 113.278 78.2561 111.565 77.3303C111.567 77.3747 111.567 77.4212 111.567 77.4677C112.03 79.0402 112.495 80.6147 112.959 82.1893L113.059 82.5247C113.397 83.6427 113.768 84.7622 113.87 85.9323C114.064 88.1684 112.577 90.377 110.092 89.6267C108.789 89.2346 107.745 88.1384 106.743 87.2604L106.112 86.7143C107.745 92.0551 108.878 97.5862 108.983 103.159C108.99 103.462 108.73 103.69 108.442 103.701C107.771 103.728 107.048 103.595 106.372 103.326C106.334 103.324 106.296 103.322 106.256 103.316C105.102 103.149 104.031 102.733 103.087 102.118C103.304 102.809 103.402 103.55 103.345 104.326C103.33 104.514 103.036 104.58 102.994 104.373C102.449 101.691 99.3115 99.6637 96.6073 100.177C93.7045 100.729 91.5664 103.227 91.0425 106.07C90.4805 109.124 91.5559 112.655 93.5481 115.012C94.465 116.098 95.6714 117.005 97.1037 117.233C97.7587 117.337 98.439 117.301 99.0749 117.115C99.3453 117.035 99.5988 116.923 99.8566 116.817C100.233 116.665 100.672 116.642 101.027 116.481C101.832 116.119 102.641 116.861 102.233 117.688C101.878 118.408 101.559 118.894 100.97 119.266C101.447 119.85 101.881 120.661 102.041 120.879C102.861 121.987 103.693 123.033 104.627 124.045C105.578 125.072 106.615 126.011 107.711 126.879L108.172 127.244C109.229 128.082 110.148 128.858 110.893 130.06C111.481 131.009 110.72 132.296 109.619 132.281C106.176 132.233 103.672 129.206 101.889 126.562C101.635 126.184 101.397 125.785 101.175 125.374C101.095 125.503 101.006 125.624 100.907 125.734L101.103 126.262C101.686 127.818 99.1742 128.834 98.4453 127.382C97.915 126.33 97.3002 125.328 96.6157 124.381C96.2122 124.324 95.8171 124.079 95.5974 123.762C95.0418 122.957 94.4185 122.143 93.8925 121.285C93.6009 121.008 93.3009 120.742 92.9946 120.482C92.9059 120.56 92.815 120.638 92.7284 120.721C92.3439 121.598 91.8685 122.399 91.2791 123.153L91.1527 123.314C90.0235 124.738 88.5527 126.195 86.7326 126.543C86.177 126.649 85.6425 125.958 86.1347 125.516C87.4087 124.371 88.915 123.591 90.0897 122.312C90.6684 121.682 91.1997 120.988 91.6567 120.261L91.7608 120.093C91.8368 119.968 91.915 119.843 91.9953 119.717C91.465 119.355 90.9347 118.992 90.4045 118.628C88.9447 119.876 87.0436 120.447 85.429 121.48L85.2685 121.585C83.8087 122.561 82.2706 120.401 83.4411 119.216C84.7313 117.914 85.8083 116.361 86.9513 114.913C86.4138 113.923 86.1595 112.752 86.0642 111.568C86.0266 111.233 85.9972 110.898 85.9678 110.563C85.1481 110.576 84.3242 110.295 83.627 109.811L83.3629 109.623C82.5157 109.893 81.6263 110.024 80.7749 110.001C78.7721 109.942 77.9523 107.653 79.2052 106.205C80.4833 104.726 82.7206 104.402 84.4932 105.121C84.5502 105.091 84.6094 105.06 84.6664 105.028C84.5819 104.639 84.6007 104.286 84.6968 103.976L84.669 103.787C84.2792 103.189 84.0229 102.506 83.9257 101.784C83.8488 101.213 83.8645 100.646 83.9967 100.081C84.0406 99.8935 84.1321 99.6988 84.2021 99.5029C84.058 99.1389 83.9733 98.7627 83.9471 98.3844C83.9067 98.3365 83.8666 98.2872 83.8285 98.2339C82.949 96.9986 83.1267 95.5101 83.9637 94.5104C83.9676 94.4468 83.9735 94.3831 83.9821 94.32C83.9331 94.2096 83.8881 94.0982 83.8471 93.9856C83.0293 93.1603 82.4289 92.1671 82.5409 90.9364C82.6066 90.2124 82.904 89.5606 83.3542 89.0734C83.2744 88.8371 83.2668 88.5634 83.3635 88.3349C82.645 86.4231 82.7359 84.1204 83.253 81.9822C83.139 81.6567 83.0798 81.3037 83.0925 80.9296C83.1516 79.3424 84.5249 77.8841 86.1516 77.9031C86.3475 77.9048 86.5309 77.9304 86.7071 77.9678L86.7094 77.9299C86.7717 77.4536 86.9027 77.0133 87.0939 76.6183C86.9999 76.5843 86.9128 76.5355 86.8366 76.4706C85.7942 77.0268 84.6911 77.4521 83.5347 77.7418C82.6843 77.9549 81.8133 76.988 82.3418 76.1895C82.5871 75.819 82.8578 75.4863 83.1493 75.1824C82.7348 75.1847 82.314 75.2128 81.8883 75.2676C81.1235 75.3669 80.2699 74.8449 79.7735 74.139C79.1566 74.7392 78.5376 75.3373 77.9185 75.9354C76.3509 77.455 73.9826 76.337 73.7354 74.3334C73.2685 74.2087 72.8333 73.9973 72.4509 73.6951C69.9791 74.7688 67.3192 75.3584 64.6002 75.4705C62.6481 75.5508 61.5073 73.2766 62.4199 71.6704C63.0326 70.5925 63.7932 69.6245 64.6699 68.7833C63.3094 69.1997 61.9045 69.4998 60.4699 69.6921C59.6946 69.7957 58.5981 69.1532 58.2876 68.441C57.1002 65.7019 57.2016 62.8465 58.5685 60.1814C58.6214 60.0757 58.6805 59.9743 58.7376 59.8728C58.8791 59.5199 59.0333 59.1711 59.2002 58.8287C57.5185 57.0745 57.3728 54.4665 58.2791 52.2832C57.9157 51.6936 57.7763 50.9834 58.0235 50.3409C58.727 48.4916 59.7411 46.7839 61.0214 45.3171C60.8988 45.0804 60.7911 44.8289 60.7002 44.5584C59.9798 42.3709 60.8143 39.7311 62.4981 38.2073C63.5566 37.2478 64.7735 36.6729 66.0728 36.3051C66.6199 35.3372 67.3235 34.4643 68.1432 33.7288C68.1749 33.659 68.2066 33.5893 68.2425 33.5195C69.5185 31.1144 71.8425 29.8251 74.3333 29.5271C74.4305 28.5866 75.0643 27.6884 75.9854 27.3967C76.239 26.583 76.6171 25.8053 77.1368 25.0993C77.9545 23.9876 79.3129 23.4635 80.5932 24.1927C81.2946 24.5921 81.9664 25.0507 82.596 25.558C82.8788 25.4253 83.1994 25.3395 83.5611 25.3121L83.6523 25.3065L85.7354 25.2008C86.608 24.814 87.4784 24.4082 88.3509 24.013C88.8749 23.5797 89.4601 23.2183 90.0981 22.9499C90.8206 22.6477 91.5601 22.4765 92.3016 22.4194C92.9037 22.2229 93.5101 22.0496 94.127 21.9143C95.5763 21.5973 97.0932 21.4197 98.5974 21.4345C98.6282 21.045 98.6435 20.6509 98.6405 20.2521L98.6376 20.0523C98.6037 18.7736 99.6242 17.7528 100.826 17.571ZM99.3664 119.875C99.1594 119.92 98.9502 119.955 98.7411 119.981C98.8045 120.137 98.8678 120.294 98.9291 120.45C99.0981 120.545 99.2692 120.636 99.4404 120.721C99.3897 120.433 99.3601 120.144 99.3664 119.875ZM88.5121 116.648L88.3717 116.907C88.3489 116.95 88.3265 116.991 88.3045 117.032C88.6023 117.009 88.9023 117.016 89.1981 117.049L89.1973 117.018C89.1592 117.005 89.1212 116.993 89.0849 116.975C88.8808 116.877 88.6911 116.767 88.5121 116.648ZM94.3784 104.844C96.2475 104.953 97.8311 105.24 99.531 106.058L99.677 106.129C101.179 106.875 103.664 108.253 103.454 110.229C103.395 110.791 102.988 111.383 102.345 111.339C100.585 111.218 99.5798 109.443 98.3883 108.335C97.1861 107.22 95.7094 106.072 94.2537 105.305C94.048 105.197 94.129 104.855 94.3529 104.844L94.3784 104.844ZM85.9023 78.8077C85.4545 78.8225 85.6045 79.2579 85.8347 78.8943C85.8537 78.8647 85.877 78.8352 85.9023 78.8077ZM110.079 49.7424C105.837 49.854 101.568 52.3595 98.3904 54.8921C95.6259 57.0955 93.2388 59.7162 91.1251 62.5409C90.5813 63.9476 90.1144 65.3838 89.7199 66.8305C89.4601 67.7858 89.2974 68.7516 89.0798 69.7154L89.0122 70.0109C88.8413 70.3304 88.7143 70.6743 88.6218 71.0296C89.0069 71.4159 89.5066 71.6926 90.0567 71.8238C90.234 71.8661 90.3812 71.9576 90.4976 72.0789C90.9404 71.3396 91.3275 70.5593 91.5527 69.7321L91.5609 69.6938C92.4121 68.2991 93.3366 66.9478 94.3277 65.6427C97.0615 62.0392 100.072 58.7548 103.691 56.022C106.435 53.9508 109.503 52.3276 112.765 51.273C111.967 50.6286 111.06 50.1188 110.079 49.7424Z" fill="black"/>
<path fill-rule="evenodd" clip-rule="evenodd" d="M143.152 128.274C141.732 127.695 140.465 126.728 139.538 125.493C139.216 125.063 139.133 124.61 139.2 124.195C139.276 123.729 139.552 123.306 139.928 123.023C140.305 122.739 140.777 122.598 141.233 122.67C141.63 122.732 142.024 122.949 142.337 123.399L142.402 123.489C142.953 124.235 143.67 124.846 144.488 125.241C145.276 125.621 146.158 125.798 147.07 125.695C148.808 125.499 150.005 124.559 151.278 123.282C151.436 123.121 151.594 122.955 151.752 122.786C151.852 122.633 151.991 122.534 152.146 122.483C152.317 122.425 152.511 122.429 152.689 122.491C152.86 122.55 153.013 122.664 153.116 122.815C153.213 122.958 153.269 123.135 153.251 123.339C153.134 124.661 152.443 125.842 151.461 126.769C150.37 127.799 148.924 128.511 147.563 128.761C146.064 129.036 144.536 128.839 143.152 128.274ZM148.271 107.866C149.866 108.836 152.297 111.098 150.581 113.503C148.56 115.624 145.652 113.193 144.219 112.093C142.89 111.241 141.396 113.433 142.629 114.428C152.986 122.099 157.19 108.12 149.078 106.726C148.184 106.572 147.853 107.566 148.271 107.866ZM129.711 98.9429C129.887 96.7541 133.219 96.257 133.551 98.423C133.847 100.363 133.498 102.145 132.624 103.892C131.79 105.561 129.692 104.783 129.533 103.263C129.32 101.226 129.601 100.304 129.711 98.9429ZM155.076 97.9739C155.541 97.3652 156.212 96.9497 157.015 97.1845C159.526 97.9185 158.786 101.485 157.904 103.22C157.425 104.163 155.876 104.402 155.176 103.572C154.035 102.219 153.489 99.5157 154.94 98.1825C154.979 98.1136 155.023 98.044 155.076 97.9739ZM132.589 89.3654L132.986 89.2959C134.213 89.0836 135.738 88.8796 136.606 89.8665C137.067 90.3898 137.225 91.3624 136.606 91.8633C135.518 92.7446 134.314 92.4031 133.01 92.4777C131.935 92.5394 130.902 92.7174 129.867 93.0135C127.595 93.663 125.744 94.8486 123.804 96.1505C123.55 96.3213 123.29 95.9956 123.411 95.7574C124.531 93.563 126.701 91.7604 128.875 90.6616C130.036 90.0751 131.305 89.5885 132.589 89.3654ZM152.787 88.3823L153.091 88.4445C156.395 89.1353 160.687 90.5153 162.251 93.7615C162.311 94.2205 162.248 94.3189 162.197 94.3832L162.18 94.4046C162.137 94.4595 162.104 94.5351 161.905 94.5976C161.85 94.5844 161.794 94.5705 161.737 94.5557C161.02 94.3677 160.453 94.1087 159.904 93.84L159.308 93.5465C158.617 93.2076 157.92 92.881 157.181 92.6399C155.605 92.1255 153.983 91.7631 152.337 91.5696C151.98 91.5277 151.636 91.4072 151.365 91.2007C151.108 91.0046 150.911 90.7332 150.821 90.3724C150.705 89.9056 150.739 89.5521 150.989 89.1309C151.177 88.8146 151.447 88.5953 151.756 88.4694C152.071 88.3411 152.43 88.3108 152.787 88.3823Z" fill="black"/>
<path fill-rule="evenodd" clip-rule="evenodd" d="M129.449 129.598C131.159 125.59 134.893 122.644 139.191 121.566C142.347 120.777 145.66 120.803 148.877 121.116C150.563 121.279 152.371 121.412 153.96 122.038C155.317 122.573 156.422 123.585 157.253 124.772C158.243 126.179 158.916 127.789 159.389 129.439C159.456 129.674 159.519 129.91 159.578 130.148C159.372 131.393 158.936 132.453 157.783 133.235C156.658 134 155.316 134.313 153.978 134.424C153.846 134.361 153.72 134.296 153.603 134.229C151.518 133.035 150.051 130.213 147.419 130.595C145.07 130.936 143.524 133.893 142.127 135.626C137.644 136.149 133.164 134.801 129.516 132.236C129.33 131.359 129.32 130.473 129.449 129.598ZM162.625 126.557C162.266 125.551 161.815 124.575 161.279 123.657C159.509 120.619 156.791 118.198 153.565 116.814C145.934 113.546 136.06 115.85 129.897 121.211C127.792 123.044 125.663 125.737 125.019 128.634C124.827 128.672 124.646 128.772 124.496 128.913C120.044 126.108 115.458 123.41 111.87 119.523C109.264 116.698 107.452 113.355 106.342 109.682C106.252 109.38 105.764 109.424 105.779 109.759C105.783 109.837 105.787 109.915 105.792 109.993C105.745 109.849 105.526 109.923 105.509 110.063C104.912 114.525 104.165 119.256 104.853 123.741C105.264 126.418 106.479 128.377 108.104 130.493C109.845 132.761 111.815 134.87 113.83 136.893C115.109 138.177 116.444 139.658 118.01 140.6C119.831 141.694 121.896 142.525 123.839 143.369C125.816 144.23 127.823 145.026 129.867 145.716C133.954 147.099 138.178 148.056 142.476 148.475C145.917 148.809 149.85 149.173 153.148 147.878C155.675 146.886 157.716 145.092 159.334 142.933C161.096 140.583 162.488 137.905 163.258 135.082C164.058 132.149 162.794 127.03 162.625 126.557Z" fill="black"/>
</svg>
