<svg width="37" height="57" viewBox="0 0 37 57" fill="none" xmlns="http://www.w3.org/2000/svg">
<path d="M34.6768 39.159C34.6768 37.0215 34.6768 32.6895 34.6768 28.386H31.5791C31.5791 28.899 31.1775 29.298 30.6613 29.298H28.9403C28.9116 29.298 28.883 29.298 28.8543 29.298C28.8256 29.298 28.7969 29.298 28.7395 29.298L13.3085 29.241C12.8209 29.241 12.4194 28.8705 12.3907 28.386H9.14963V35.3115C11.8458 35.5395 14.3411 36.6795 16.2341 38.6175C18.3566 40.755 19.5039 43.605 19.5039 46.626C19.5039 47.139 19.1023 47.538 18.5861 47.538V55.176C27.4202 55.176 34.5907 48.108 34.7054 39.3585C34.6768 39.3015 34.6768 39.2445 34.6768 39.159Z" fill="#BB8C82"/>
<path d="M22.9457 27.4455L27.9078 27.474V9.17701C27.9078 8.49301 27.6496 7.86601 27.1907 7.41001C26.7318 6.92551 26.1008 6.66901 25.4411 6.66901C24.0643 6.66901 22.9457 7.78051 22.9457 9.14851V27.4455Z" fill="#A97C71"/>
<path d="M12.3907 28.329C12.3907 27.816 12.7923 27.417 13.3085 27.417H14.2264V24.681C14.2264 24.168 14.6279 23.769 15.1442 23.769C15.6605 23.769 16.062 24.168 16.062 24.681V27.417L21.1101 27.4455V4.33201C21.1101 3.64801 20.8519 3.02101 20.393 2.56501C19.9341 2.08051 19.3031 1.82401 18.6147 1.82401C17.2093 1.82401 16.062 2.93551 16.062 4.30351V21.0615C16.062 21.5745 15.6605 21.9735 15.1442 21.9735C14.6279 21.9735 14.2264 21.5745 14.2264 21.0615V9.09151C14.2264 7.72351 13.1078 6.61201 11.731 6.61201C10.3256 6.61201 9.14963 7.75201 9.14963 9.09151V28.386H12.3907C12.3907 28.3575 12.3907 28.3575 12.3907 28.329Z" fill="#A97C71"/>
<path d="M34.6767 16.5585C34.6767 15.162 33.6155 14.0505 32.2674 14.0505C30.862 14.0505 29.7434 15.162 29.7434 16.53V27.474H30.6612C31.1775 27.474 31.5791 27.873 31.5791 28.386H34.6767C34.6767 22.515 34.6767 16.6725 34.6767 16.5585Z" fill="#A97C71"/>
<path d="M18.5861 47.538C18.0698 47.538 17.6682 47.139 17.6682 46.626C17.6682 44.0895 16.7217 41.6955 14.9434 39.9C13.1651 38.1045 10.7845 37.107 8.23179 37.107C7.71552 37.107 7.31397 36.708 7.31397 36.195V22.1445C7.31397 20.7765 6.19536 19.665 4.81862 19.665C3.44187 19.665 2.32327 20.7765 2.29459 22.1445C2.29459 22.2585 2.32327 33.8295 2.29459 38.9595C2.29459 39.0165 2.29459 39.045 2.29459 39.102C2.29459 47.9655 9.57986 55.176 18.5574 55.176C18.5861 55.176 18.5861 47.538 18.5861 47.538Z" fill="#A97C71"/>
<path d="M36.5124 38.988C36.5411 33.7155 36.5124 16.7295 36.5124 16.587C36.5124 14.1645 34.6768 12.255 32.2961 12.255H32.2674C31.3209 12.255 30.4605 12.54 29.7434 13.053V9.177C29.7434 8.037 29.3132 6.954 28.5101 6.1275C27.707 5.301 26.6171 4.845 25.4698 4.845H25.4411C24.5233 4.845 23.6628 5.13 22.9457 5.643V4.3605C22.9457 3.2205 22.5155 2.109 21.6837 1.311C20.8806 0.456 19.7907 0 18.6147 0H18.5861C16.1767 0 14.2264 1.938 14.1977 4.3035V5.586C13.5093 5.1015 12.6488 4.788 11.731 4.788H11.7023C9.29303 4.788 7.31396 6.726 7.28528 9.0915V18.639C6.56822 18.126 5.70776 17.841 4.78993 17.841H4.76124C2.38062 17.841 0.430237 19.779 0.430237 22.1445C0.430237 22.2585 0.458919 34.0575 0.430237 39.102C0.430237 39.159 0.430237 39.216 0.430237 39.2445C0.573648 49.0485 8.66202 57 18.5861 57C23.4047 57 27.9078 55.1475 31.2923 51.7845C34.6768 48.4215 36.5411 43.947 36.5411 39.159C36.5124 39.102 36.5124 39.045 36.5124 38.988ZM18.5861 55.176C9.60853 55.176 2.32326 47.9655 2.32326 39.102C2.32326 39.045 2.32326 39.0165 2.32326 38.9595C2.35194 33.8295 2.32326 22.2585 2.32326 22.1445C2.32326 20.7765 3.44186 19.665 4.84729 19.665C6.22404 19.665 7.34264 20.7765 7.34264 22.1445V36.195C7.34264 36.708 7.74419 37.107 8.26047 37.107C10.8132 37.107 13.1938 38.1045 14.9721 39.9C16.7504 41.6955 17.7256 44.0895 17.6969 46.626C17.6969 47.139 18.0985 47.538 18.6147 47.538C19.131 47.538 19.5326 47.139 19.5326 46.626C19.5326 43.605 18.3853 40.755 16.2915 38.6175C14.3985 36.6795 11.9031 35.5395 9.20698 35.3115V9.0915C9.20698 7.752 10.3829 6.612 11.7884 6.612C13.1651 6.612 14.255 7.7235 14.2837 9.0915V21.0615C14.2837 21.5745 14.6853 21.9735 15.2016 21.9735C15.7178 21.9735 16.1194 21.5745 16.1194 21.0615V4.3035C16.1194 2.9355 17.2667 1.824 18.6721 1.824C19.3318 1.824 19.9628 2.0805 20.4504 2.565C20.9093 3.0495 21.1674 3.6765 21.1674 4.332V27.4455H16.062V24.7095C16.062 24.1965 15.6605 23.7975 15.1442 23.7975C14.6279 23.7975 14.2264 24.1965 14.2264 24.7095V27.4455H13.3085C12.7923 27.4455 12.3907 27.8445 12.3907 28.3575C12.3907 28.386 12.3907 28.386 12.3907 28.4145C12.4194 28.899 12.8209 29.2695 13.3085 29.2695L28.7395 29.3265C28.7682 29.3265 28.7969 29.3265 28.8543 29.3265C28.883 29.3265 28.9116 29.3265 28.9403 29.3265H30.6612C31.1775 29.3265 31.5791 28.9275 31.5791 28.4145C31.5791 27.9015 31.1775 27.5025 30.6612 27.5025H29.7434V16.53C29.7434 15.162 30.8907 14.0505 32.2674 14.0505C33.6155 14.0505 34.6768 15.162 34.6768 16.5585C34.6768 16.6725 34.6768 22.4865 34.6768 28.386C34.6768 32.6895 34.6768 37.05 34.6768 39.159C34.6768 39.216 34.6768 39.3015 34.7054 39.3585C34.5907 48.108 27.3915 55.176 18.5861 55.176ZM25.4411 6.6405C26.1008 6.6405 26.7318 6.897 27.1907 7.3815C27.6496 7.866 27.9078 8.493 27.9078 9.1485V27.4455H22.9457V9.1485C22.9457 7.7805 24.0643 6.6405 25.4411 6.6405Z" fill="#422938"/>
</svg>
